<?xml version="1.0" encoding="utf-8"?>
<!-- Generator: Adobe Illustrator 25.2.3, SVG Export Plug-In . SVG Version: 6.00 Build 0)  -->
<svg version="1.1" id="Camada_1" xmlns="http://www.w3.org/2000/svg" xmlns:xlink="http://www.w3.org/1999/xlink" x="0px" y="0px"
	 viewBox="0 0 1727.6 890.88" style="enable-background:new 0 0 1727.6 890.88;" xml:space="preserve">
<style type="text/css">
	.st0{fill:none;stroke:#DBDFE0;stroke-width:2;}
	.st1{fill:#DBDFE0;}
</style>
<g id="Grupo_446" transform="translate(-286 34.684)">
	<g id="Grupo_4" transform="translate(108.324)">
		<line id="Linha_3" class="st0" x1="178.73" y1="-33.81" x2="178.73" y2="374.19"/>
		<line id="Linha_4" class="st0" x1="1455.58" y1="290.19" x2="1455.58" y2="734.19"/>
		<line id="Linha_7" class="st0" x1="1904.18" y1="-33.81" x2="1904.18" y2="112.19"/>
		<line id="Linha_5" class="st0" x1="1089.58" y1="856.19" x2="1089.58" y2="450.19"/>
		<line id="Linha_6" class="st0" x1="1089.58" y1="81.97" x2="1089.58" y2="332.19"/>
	</g>
	<g id="Grupo_70" transform="translate(318.718 -5002.433)">
		<g id="Grupo_69" transform="translate(34.701 4967.887)">
			<path id="Caminho_94_1_" class="st0" d="M920.91,0.12c0.34,55-35.71,105.73-91.18,121.62c-66.78,19.12-136.42-19.51-155.54-86.29
				l0,0"/>
			<g id="Grupo_68" transform="translate(0 34.628)">
				<line id="Linha_10" class="st0" x1="795.28" y1="-33.7" x2="1469.99" y2="166.61"/>
				<line id="Linha_11" class="st0" x1="795.11" y1="-33.81" x2="443.99" y2="70.61"/>
			</g>
		</g>
		<path id="Caminho_93" class="st1" d="M794.82,4993.61v-25.6h71.68v25.6l-35.84,20.69L794.82,4993.61z"/>
	</g>
</g>
</svg>
