<?xml version="1.0" encoding="utf-8"?>
<!-- Generator: Adobe Illustrator 25.2.3, SVG Export Plug-In . SVG Version: 6.00 Build 0)  -->
<svg version="1.1" id="Camada_1" xmlns="http://www.w3.org/2000/svg" xmlns:xlink="http://www.w3.org/1999/xlink" x="0px" y="0px"
	 viewBox="0 0 122.52 418.55" style="enable-background:new 0 0 122.52 418.55;" xml:space="preserve">
<style type="text/css">
	.st0{fill:#E6810D;}
	.st1{fill:#FF3B01;}
	.st2{fill:#FF8200;}
	.st3{fill:url(#Caminho_4_1_);}
	.st4{fill:url(#Caminho_5_1_);}
	.st5{fill:#00002C;}
	.st6{fill:url(#Retângulo_1_1_);}
	.st7{fill:#00002F;}
	.st8{fill:#636380;}
</style>
<g id="Grupo_1" transform="translate(-45 -46.427)">
	<path id="Caminho_1" class="st0" d="M72.22,92.9l14.79,14.79l9.63-9.63c5.31-5.31,13.93-5.31,19.24,0c0,0,0,0,0,0l0,0L72.22,54.4
		l-3.99-3.99c-5.31-5.32-13.93-5.32-19.25,0C46.43,52.97,45,56.43,45,60.04v85.54c0,0.94,0.76,1.71,1.71,1.71
		c0.45,0,0.89-0.18,1.21-0.5l24.31-24.31V92.9z"/>
	<path id="Caminho_2" class="st1" d="M140.27,92.93v29.52l22.91,22.91c0.99,0.99,2.59,0.99,3.57,0c0.47-0.47,0.74-1.12,0.74-1.79
		v-83.5c0-7.52-6.09-13.61-13.61-13.61c-3.61,0-7.07,1.43-9.62,3.99l-3.99,3.99l-34.01,34.01l19.25,19.25L140.27,92.93z"/>
	<path id="Caminho_3" class="st2" d="M72.22,92.9l14.79,14.79l9.63-9.63c5.31-5.31,13.93-5.31,19.24,0c0,0,0,0,0,0l0,0L72.22,54.4
		l-3.99-3.99c-5.31-5.32-13.93-5.32-19.25,0C46.43,52.97,45,56.43,45,60.04v85.54c0,0.94,0.76,1.71,1.71,1.71
		c0.45,0,0.89-0.18,1.21-0.5l24.31-24.31V92.9z"/>
	<linearGradient id="Caminho_4_1_" gradientUnits="userSpaceOnUse" x1="165.3475" y1="103.2635" x2="143.0734" y2="133.2238">
		<stop  offset="0" style="stop-color:#FF3B01"/>
		<stop  offset="0.135" style="stop-color:#FA3901"/>
		<stop  offset="0.274" style="stop-color:#EE3601"/>
		<stop  offset="0.415" style="stop-color:#D93001"/>
		<stop  offset="0.558" style="stop-color:#BC2701"/>
		<stop  offset="0.701" style="stop-color:#971C01"/>
		<stop  offset="0.844" style="stop-color:#6A0F01"/>
		<stop  offset="0.874" style="stop-color:#600C01"/>
	</linearGradient>
	<path id="Caminho_4" class="st3" d="M167.51,92.94v50.63c0,1.4-1.13,2.53-2.53,2.53c-0.67,0-1.31-0.27-1.79-0.74l-22.91-22.91
		V92.93L167.51,92.94z"/>
	
		<linearGradient id="Caminho_5_1_" gradientUnits="userSpaceOnUse" x1="-838.8597" y1="793.9608" x2="-838.8597" y2="792.9608" gradientTransform="matrix(27.22 0 0 -54.3865 22892.4141 43273.6719)">
		<stop  offset="0" style="stop-color:#FF8000"/>
		<stop  offset="1" style="stop-color:#EC1C24"/>
	</linearGradient>
	<path id="Caminho_5" class="st4" d="M45.02,92.91v52.67c0,0.94,0.77,1.71,1.71,1.71c0.45,0,0.89-0.18,1.21-0.5l24.31-24.31V92.9
		L45.02,92.91z"/>
	<path id="Caminho_6" class="st5" d="M115.88,98.06c-5.31-5.31-13.93-5.31-19.24,0l-46.62,46.62l0,0c-1.15,1.15-3.01,1.15-4.16,0
		c-0.55-0.55-0.86-1.3-0.86-2.08v-0.02v3.09c0,2.5,1.33,4.8,3.49,6.05l16.36,9.45c2.68,1.55,6.08,1.1,8.27-1.09l33.14-33.15
		l33.14,33.14c2.19,2.19,5.58,2.64,8.27,1.09l16.35-9.44c2.15-1.24,3.48-3.53,3.49-6.01l0.01-3.11v0.01
		c-0.01,1.63-1.33,2.94-2.95,2.93c-0.78,0-1.53-0.32-2.08-0.87l0,0L115.88,98.06z"/>
	<path id="Caminho_7" class="st5" d="M106.25,185.07l-14.07-8.13c-1.4-0.81-1.89-2.61-1.08-4.01c0.52-0.91,1.49-1.47,2.54-1.47
		h25.18c1.62,0,2.94,1.31,2.94,2.94c0,1.05-0.56,2.02-1.47,2.54L106.25,185.07z"/>
	<linearGradient id="Retângulo_1_1_" gradientUnits="userSpaceOnUse" x1="129.9082" y1="83.9069" x2="115.3363" y2="98.4788">
		<stop  offset="0" style="stop-color:#FF3B01"/>
		<stop  offset="0.307" style="stop-color:#FC3A00"/>
		<stop  offset="0.467" style="stop-color:#F43700"/>
		<stop  offset="0.594" style="stop-color:#E73100"/>
		<stop  offset="0.703" style="stop-color:#D42A00"/>
		<stop  offset="0.8" style="stop-color:#BB2100"/>
		<stop  offset="0.889" style="stop-color:#9D1500"/>
		<stop  offset="0.97" style="stop-color:#790700"/>
		<stop  offset="0.99" style="stop-color:#700400"/>
	</linearGradient>
	<polygon id="Retângulo_1" class="st6" points="106.26,88.31 121.02,73.54 140.27,92.79 125.51,107.55 	"/>
	<path id="Caminho_8" class="st2" d="M128.22,238.03v-4.49h21.88v5.08l-13.28,6.53l13.28,6.56v5.08h-21.88v-4.49h13.64l-13.44-6.72
		c-0.24-0.12-0.33-0.41-0.22-0.64c0.05-0.09,0.12-0.17,0.22-0.22l13.44-6.69L128.22,238.03z"/>
	<path id="Caminho_9" class="st7" d="M134.79,265.12c-1.99,0.24-3.47,1.96-3.41,3.97c-0.05,1.44,0.71,2.8,1.97,3.51l-1.05,3.84
		c-2.85-1.34-4.66-4.23-4.62-7.38c-0.2-4.36,3.18-8.06,7.54-8.26c0.2-0.01,0.4-0.01,0.59,0c4.26-0.21,7.89,3.07,8.1,7.33
		c0.01,0.22,0.01,0.44,0,0.67c0.19,4.36-3.19,8.05-7.55,8.24c-0.25,0.01-0.5,0.01-0.75,0l-0.82-0.03L134.79,265.12z M137.18,272.73
		c1.92-0.25,3.32-1.94,3.21-3.87c0.09-1.9-1.32-3.54-3.21-3.74V272.73z"/>
	<path id="Caminho_10" class="st7" d="M129.93,293.56c-1.5-1.57-2.32-3.67-2.26-5.84c-0.13-4.31,3.26-7.91,7.57-8.04
		c0.15,0,0.31,0,0.46,0c4.31-0.21,7.98,3.11,8.19,7.43c0.01,0.21,0.01,0.43,0.01,0.64c-0.01,2.28-0.92,4.46-2.53,6.07l-2.53-2.79
		c0.87-0.8,1.36-1.93,1.34-3.12c-0.04-2.26-1.91-4.05-4.17-4.01c-0.06,0-0.13,0-0.19,0.01c-2.3-0.16-4.29,1.57-4.45,3.86
		c-0.01,0.1-0.01,0.2-0.01,0.3c0,1.12,0.47,2.18,1.28,2.95L129.93,293.56z"/>
	<path id="Caminho_11" class="st7" d="M143.38,308.32v4.17H128.2v-4.17h2.1c-1.71-1.21-2.69-3.19-2.62-5.28
		c0-4.26,3.31-7.31,7.94-7.31c4.79,0,8.3,3.21,8.3,7.64c0.05,1.96-0.87,3.81-2.46,4.95H143.38z M145.68,302.32v-2.92l4.56,3.35v3.87
		l-4.56,3.15v-2.92l2.43-2.23L145.68,302.32z M135.68,300.19c-2.66,0-4.66,1.74-4.66,4c0,2.33,2.16,4.2,4.79,4.2
		c2.69,0,4.59-1.7,4.59-4.17C140.4,301.86,138.46,300.19,135.68,300.19L135.68,300.19z"/>
	<path id="Caminho_12" class="st7" d="M143.38,321.41h-1.87c1.55,0.78,2.49,2.4,2.39,4.13c0.02,1.38-0.48,2.72-1.41,3.74
		c-0.98,0.98-2.2,1.34-4.69,1.34h-9.61v-4.17h9.41c0.61,0.05,1.23-0.07,1.77-0.36c0.65-0.45,1.03-1.21,1.02-2
		c0-1.49-1.2-2.7-2.69-2.71c-0.1,0-0.19,0-0.29,0.02h-9.22v-4.17h15.19L143.38,321.41z"/>
	<path id="Caminho_13" class="st7" d="M147.68,339.71c-1.23,0.02-2.25-0.97-2.26-2.2c0-0.03,0-0.06,0-0.1
		c-0.04-1.24,0.93-2.28,2.17-2.33c0.04,0,0.09,0,0.13,0c1.25-0.04,2.29,0.94,2.33,2.18c0,0.05,0,0.1,0,0.15
		c0.04,1.24-0.94,2.27-2.18,2.3C147.8,339.71,147.74,339.71,147.68,339.71z M128.2,339.48v-4.17h15.19v4.17H128.2z"/>
	<path id="Caminho_14" class="st7" d="M129.93,357.16c-1.5-1.57-2.32-3.67-2.26-5.84c-0.13-4.31,3.26-7.91,7.57-8.04
		c0.15,0,0.31,0,0.46,0c4.31-0.21,7.98,3.11,8.19,7.43c0.01,0.21,0.01,0.43,0.01,0.64c-0.01,2.28-0.92,4.46-2.53,6.07l-2.53-2.79
		c0.87-0.8,1.36-1.93,1.34-3.11c-0.04-2.26-1.91-4.05-4.17-4.01c-0.06,0-0.13,0-0.19,0.01c-2.3-0.16-4.29,1.57-4.45,3.86
		c-0.01,0.1-0.01,0.2-0.01,0.3c0,1.12,0.47,2.18,1.28,2.95L129.93,357.16z"/>
	<path id="Caminho_15" class="st7" d="M143.38,371.43v4.17H128.2v-4.17h2.1c-1.71-1.21-2.69-3.19-2.62-5.28
		c0-4.26,3.31-7.31,7.94-7.31c4.79,0,8.3,3.21,8.3,7.64c0.05,1.96-0.87,3.81-2.46,4.95H143.38z M135.67,363.29
		c-2.66,0-4.66,1.74-4.66,4c0,2.33,2.16,4.2,4.79,4.2c2.69,0,4.59-1.7,4.59-4.17C140.4,364.96,138.46,363.29,135.67,363.29
		L135.67,363.29z"/>
	<path id="Caminho_16" class="st7" d="M99.26,239.6l-3.77-1.31v-4.76l21.88,7.54v5.61l-21.88,7.48v-4.92l3.77-1.25V239.6z
		 M111.98,243.8l-9.05-3.05v6.07L111.98,243.8z"/>
	<path id="Caminho_17" class="st7" d="M110.67,269.94h-9.61c-2.23,0-3.48-0.46-4.53-1.71c-1.09-1.4-1.64-3.15-1.58-4.92
		c-0.09-1.84,0.51-3.65,1.67-5.08c1.17-1.16,2.79-1.74,4.43-1.61h9.61v4.17h-9.35c-1.41-0.16-2.68,0.85-2.84,2.25
		c-0.01,0.09-0.02,0.18-0.02,0.27c-0.08,1.28,0.89,2.39,2.18,2.47c0.14,0.01,0.28,0.01,0.41-0.01h9.61L110.67,269.94z"/>
	<path id="Caminho_18" class="st7" d="M99.95,278.8c-0.72,0-0.92,0.26-0.98,1.18v0.72h-3.48v-3.31c0.07-2.03,0.89-2.79,2.89-2.76
		h8.86v-1.74h3.51v1.74h4.07v4.17h-4.07v1.9h-3.51v-1.9L99.95,278.8z"/>
	<path id="Caminho_19" class="st7" d="M102.93,299.79c-4.45-0.04-8.02-3.69-7.97-8.14c0-0.05,0-0.11,0-0.16
		c-0.2-4.34,3.16-8.03,7.5-8.23c0.2-0.01,0.4-0.01,0.6,0c4.82,0,8.13,3.38,8.13,8.3c0.15,4.4-3.3,8.08-7.69,8.23
		C103.31,299.8,103.12,299.8,102.93,299.79z M103.06,287.46c-2.62,0-4.4,1.64-4.4,4.07c-0.02,2.23,1.76,4.05,3.99,4.08
		c0.11,0,0.22,0,0.34-0.01c2.76,0,4.46-1.54,4.46-4.03C107.46,289.1,105.72,287.46,103.06,287.46L103.06,287.46z"/>
	<path id="Caminho_20" class="st7" d="M110.67,307.7h-1.9c1.57,0.77,2.53,2.42,2.43,4.17c0.12,1.77-0.89,3.43-2.53,4.13
		c1.68,0.9,2.67,2.7,2.53,4.59c0.07,1.37-0.44,2.7-1.41,3.67c-1.02,0.92-2.07,1.21-4.36,1.21h-9.94v-4.17h9.15
		c2.07,0,3.05-0.75,3.05-2.33c0-1.54-1.11-2.43-3.05-2.43h-9.15v-4.17h9.02c2.1,0,3.18-0.79,3.18-2.3c0-1.57-1.08-2.39-3.18-2.39
		h-9.02v-4.17h15.19L110.67,307.7z"/>
	<path id="Caminho_21" class="st7" d="M102.93,345.71c-4.45-0.04-8.02-3.69-7.97-8.14c0-0.05,0-0.11,0-0.16
		c-0.2-4.34,3.16-8.03,7.5-8.23c0.2-0.01,0.4-0.01,0.6,0c4.82,0,8.13,3.38,8.13,8.3c0.15,4.4-3.29,8.08-7.69,8.23
		C103.31,345.72,103.12,345.72,102.93,345.71z M103.06,333.38c-2.62,0-4.4,1.64-4.4,4.07c-0.02,2.23,1.76,4.05,3.99,4.08
		c0.11,0,0.22,0,0.34-0.01c2.76,0,4.46-1.54,4.46-4.03C107.46,335.02,105.72,333.38,103.06,333.38L103.06,333.38z"/>
	<path id="Caminho_22" class="st7" d="M99.95,353.78c-0.72,0-0.92,0.26-0.98,1.18v0.72h-3.48v-3.31c0.07-2.03,0.89-2.79,2.89-2.76
		h8.86v-1.74h3.51v1.74h4.07v4.17h-4.07v1.9h-3.51v-1.9L99.95,353.78z"/>
	<path id="Caminho_23" class="st7" d="M114.97,363.85c-1.23,0.02-2.25-0.97-2.26-2.21c0-0.03,0-0.06,0-0.09
		c-0.04-1.24,0.93-2.28,2.17-2.33c0.04,0,0.09,0,0.13,0c1.25-0.04,2.29,0.94,2.33,2.18c0,0.05,0,0.1,0,0.15
		c0.04,1.24-0.94,2.27-2.18,2.3C115.1,363.85,115.03,363.85,114.97,363.85z M95.49,363.62v-4.17h15.19v4.17H95.49z"/>
	<path id="Caminho_24" class="st7" d="M110.67,381.59l-15.19-5.54v-4.3l15.19-5.48v4.33l-9.05,3.35l9.05,3.38V381.59z"/>
	<path id="Caminho_25" class="st7" d="M110.67,395.6v4.17H95.48v-4.17h2.1c-1.71-1.21-2.69-3.19-2.62-5.28
		c0-4.26,3.31-7.31,7.94-7.31c4.79,0,8.3,3.21,8.3,7.64c0.05,1.96-0.87,3.81-2.46,4.95H110.67z M102.97,387.47
		c-2.66,0-4.66,1.74-4.66,4c0,2.33,2.16,4.2,4.79,4.2c2.69,0,4.59-1.7,4.59-4.17C107.69,389.14,105.75,387.47,102.97,387.47z"/>
	<path id="Caminho_26" class="st8" d="M109.14,413.07h-2.91c2.28,1.4,3.15,2.82,3.15,5.22c0,3.71-2.7,6.17-6.83,6.17
		c-4.36,0-7.3-2.49-7.3-6.23c0-1.03,0.24-2.05,0.71-2.97c0.46-0.9,1.14-1.66,1.99-2.2h-8.99v-1.48h20.18L109.14,413.07z
		 M102.07,413.07c-3.23,0-5.43,1.99-5.43,4.96c0,2.94,2.28,4.87,5.76,4.87c1.46,0.12,2.91-0.34,4.04-1.28
		c0.97-0.91,1.53-2.17,1.54-3.5C107.98,415.09,105.61,413.07,102.07,413.07L102.07,413.07z"/>
	<path id="Caminho_27" class="st8" d="M109.14,438.41v1.48H95.49v-1.48h3.03c-2.23-1.36-3.26-3-3.26-5.1c0-3.68,2.94-6.32,7.06-6.32
		s7.06,2.61,7.06,6.29c0.05,2.08-1,4.03-2.76,5.13L109.14,438.41z M106.23,429.75c-1.18-0.81-2.58-1.23-4.01-1.22
		c-3.2,0-5.58,2.05-5.58,4.78c0,2.85,2.64,5.13,5.88,5.13s5.46-2.05,5.46-5.05C108.08,431.96,107.41,430.58,106.23,429.75
		L106.23,429.75z"/>
	<path id="Caminho_28" class="st8" d="M109.14,446.31h-2.46c0.7,0.26,1.33,0.7,1.81,1.28c0.59,0.8,0.9,1.77,0.89,2.76v0.59h-1.45
		v-0.5c0-2.52-2.23-4.27-5.31-4.12h-7.12v-1.48h13.65L109.14,446.31z"/>
	<path id="Caminho_29" class="st8" d="M109.14,463.49v1.49H95.49v-1.48h3.03c-2.23-1.36-3.26-3-3.26-5.1c0-3.68,2.94-6.32,7.06-6.32
		s7.06,2.61,7.06,6.29c0.05,2.08-1,4.03-2.76,5.13L109.14,463.49z M106.23,454.82c-1.18-0.81-2.58-1.23-4.01-1.22
		c-3.2,0-5.58,2.05-5.58,4.78c0,2.85,2.64,5.13,5.88,5.13s5.46-2.05,5.46-5.05C108.08,457.03,107.41,455.65,106.23,454.82
		L106.23,454.82z"/>
	<path id="Caminho_30" class="st1" d="M62.78,238.03v-4.49h21.88v5.08l-13.28,6.53l13.28,6.56v5.08H62.78v-4.49h13.65l-13.44-6.72
		c-0.24-0.12-0.33-0.41-0.22-0.64c0.05-0.09,0.12-0.17,0.22-0.22l13.44-6.69L62.78,238.03z"/>
	<path id="Caminho_31" class="st7" d="M77.97,274.8h-9.61c-2.23,0-3.48-0.46-4.53-1.71c-1.09-1.4-1.64-3.15-1.58-4.92
		c-0.09-1.84,0.51-3.65,1.67-5.08c1.17-1.16,2.79-1.74,4.43-1.61h9.61v4.17h-9.35c-1.41-0.16-2.68,0.85-2.84,2.25
		c-0.01,0.09-0.02,0.18-0.02,0.27c-0.08,1.28,0.89,2.39,2.18,2.47c0.14,0.01,0.28,0.01,0.41-0.01h9.61L77.97,274.8z"/>
	<path id="Caminho_32" class="st7" d="M62.78,279.29h21.88v4.17H62.78V279.29z"/>
	<path id="Caminho_33" class="st7" d="M76.33,292.41c1.35,0.96,2.16,2.51,2.16,4.17c-0.01,1.34-0.51,2.64-1.41,3.64
		c-0.92,0.98-2.1,1.34-4.3,1.34h-10v-4.17h9.41c1.71,0,2.79-0.89,2.79-2.26c0.01-0.7-0.26-1.37-0.75-1.87
		c-0.62-0.65-1.51-0.97-2.4-0.85h-9.05v-4.17h21.88v4.17H76.33z"/>
	<path id="Caminho_34" class="st7" d="M69.37,309.6c-1.99,0.24-3.47,1.96-3.41,3.97c-0.05,1.44,0.71,2.8,1.97,3.51l-1.05,3.84
		c-2.85-1.34-4.66-4.23-4.62-7.38c-0.2-4.36,3.18-8.06,7.54-8.26c0.2-0.01,0.4-0.01,0.6,0c4.26-0.21,7.89,3.07,8.1,7.34
		c0.01,0.22,0.01,0.44,0,0.66c0.19,4.36-3.19,8.05-7.55,8.24c-0.25,0.01-0.5,0.01-0.75,0l-0.82-0.03L69.37,309.6z M71.77,317.21
		c1.92-0.25,3.32-1.94,3.21-3.87c0.09-1.9-1.32-3.54-3.21-3.74V317.21z"/>
	<path id="Caminho_35" class="st7" d="M77.97,329.31h-2.23c0.81,0.21,1.52,0.68,2.03,1.34c0.48,0.73,0.73,1.59,0.72,2.46
		c0,0.16-0.01,0.33-0.03,0.49h-4.27c0.03-0.33,0.07-0.66,0.07-0.89c0.02-1.1-0.49-2.14-1.38-2.79c-0.83-0.52-1.81-0.74-2.79-0.62
		h-7.31v-4.17h15.19L77.97,329.31z"/>
	<path id="Caminho_36" class="st7" d="M69.37,340.07c-1.99,0.24-3.47,1.96-3.41,3.97c-0.05,1.44,0.71,2.8,1.97,3.51l-1.05,3.84
		c-2.85-1.34-4.66-4.23-4.62-7.38c-0.2-4.36,3.18-8.06,7.54-8.26c0.2-0.01,0.4-0.01,0.59,0c4.26-0.21,7.89,3.07,8.1,7.33
		c0.01,0.22,0.01,0.44,0,0.67c0.19,4.36-3.19,8.05-7.55,8.24c-0.25,0.01-0.5,0.01-0.75,0l-0.82-0.03L69.37,340.07z M71.77,347.68
		c1.92-0.25,3.32-1.94,3.21-3.87c0.09-1.9-1.32-3.54-3.21-3.74V347.68z"/>
	<path id="Caminho_37" class="st7" d="M73.57,362.11h0.26c0.95-0.07,1.66-0.9,1.58-1.85c0-0.03,0-0.05-0.01-0.08
		c0-1.02-0.56-1.67-1.38-1.67c-0.38-0.01-0.74,0.14-0.98,0.43c-0.36,0.46-0.36,0.49-1.02,2.59c-1.05,3.41-2.39,4.76-4.85,4.76
		c-2.95,0-4.92-2.36-4.92-5.9c0-3.61,1.84-5.81,4.98-5.97v4c-1.31,0.2-1.9,0.79-1.9,2c-0.1,0.82,0.49,1.57,1.32,1.66
		c0.04,0.01,0.08,0.01,0.13,0.01c0.92,0,1.34-0.59,2.03-2.82c0.98-3.28,2.46-4.76,4.85-4.76c2.89,0,4.82,2.33,4.82,5.87
		c0,3.48-1.84,5.58-4.92,5.67L73.57,362.11z"/>
</g>
</svg>
